# xmcd CD database file
#
# Track frame offsets:
#	150
#	11922
#	28556
#	53305
#	72889
#	82808
#	122309
#	146234
#	178460
#	203209
#	225952
#
# Disc length: 3292 seconds
#
# Revision: 0
# Processed by: cddbd v1.5.2PL0 Copyright (c) Steve Scherf et al.
# Submitted via: CDex 1.70beta2
#
DISCID=880cda0b
DTITLE=Sand - The Dalston Shroud
DYEAR=2006
DGENRE=Jazz
TTITLE0=Kendoki
TTITLE1=Doctor Crop
TTITLE2=The Dalston Shroud
TTITLE3=Stick Eyed Bug Man
TTITLE4=Summer Lightning (PT. 2)
TTITLE5=Lal K
TTITLE6=Light Bender
TTITLE7=Arson
TTITLE8=Intersex
TTITLE9=Bearded Angel
TTITLE10=Summer Lightning (PT. 1)
EXTD=YEAR: 2006
EXTT0=
EXTT1=
EXTT2=
EXTT3=
EXTT4=
EXTT5=
EXTT6=
EXTT7=
EXTT8=
EXTT9=
EXTT10=
PLAYORDER=
